<svg width="25" height="25" viewBox="0 0 25 25" fill="none" xmlns="http://www.w3.org/2000/svg">
<path d="M19.4199 7.59125V4.25C19.4199 3.85218 19.2619 3.47064 18.9806 3.18934C18.6993 2.90804 18.3177 2.75 17.9199 2.75H7.41992C7.0221 2.75 6.64057 2.90804 6.35926 3.18934C6.07796 3.47064 5.91992 3.85218 5.91992 4.25V7.625C5.92043 7.85778 5.97487 8.08727 6.07897 8.29548C6.18307 8.50368 6.334 8.68493 6.51992 8.825L11.4202 12.5L6.51992 16.175C6.334 16.3151 6.18307 16.4963 6.07897 16.7045C5.97487 16.9127 5.92043 17.1422 5.91992 17.375V20.75C5.91992 21.1478 6.07796 21.5294 6.35926 21.8107C6.64057 22.092 7.0221 22.25 7.41992 22.25H17.9199C18.3177 22.25 18.6993 22.092 18.9806 21.8107C19.2619 21.5294 19.4199 21.1478 19.4199 20.75V17.4088C19.4194 17.1769 19.3654 16.9482 19.2622 16.7406C19.1589 16.533 19.0092 16.3519 18.8246 16.2116L13.914 12.5L18.8246 8.7875C19.0093 8.64742 19.1591 8.46658 19.2623 8.25908C19.3656 8.05158 19.4195 7.82303 19.4199 7.59125ZM7.41992 4.25H17.9199V7.59125L17.379 8H7.91961L7.41992 7.625V4.25ZM12.6699 11.5625L9.92023 9.5H15.3952L12.6699 11.5625ZM17.9199 20.75H7.41992V17.375L11.9199 14V16.25C11.9199 16.4489 11.9989 16.6397 12.1396 16.7803C12.2802 16.921 12.471 17 12.6699 17C12.8688 17 13.0596 16.921 13.2003 16.7803C13.3409 16.6397 13.4199 16.4489 13.4199 16.25V14.0075L17.9199 17.4088V20.75Z" fill="#1E252E"/>
</svg>
