<svg width="45" height="44" viewBox="0 0 45 44" fill="none" xmlns="http://www.w3.org/2000/svg">
<path d="M35.7744 33.4088C35.9021 33.5366 36.0034 33.6882 36.0726 33.8551C36.1417 34.0221 36.1773 34.201 36.1773 34.3816C36.1773 34.5623 36.1417 34.7412 36.0726 34.9081C36.0034 35.075 35.9021 35.2267 35.7744 35.3544C35.6466 35.4822 35.4949 35.5835 35.328 35.6527C35.1611 35.7218 34.9822 35.7574 34.8015 35.7574C34.6209 35.7574 34.442 35.7218 34.2751 35.6527C34.1081 35.5835 33.9565 35.4822 33.8287 35.3544L22.4265 23.9505L11.0244 35.3544C10.7664 35.6124 10.4164 35.7574 10.0515 35.7574C9.68667 35.7574 9.33674 35.6124 9.07873 35.3544C8.82073 35.0964 8.67578 34.7465 8.67578 34.3816C8.67578 34.0167 8.82073 33.6668 9.07873 33.4088L20.4826 22.0066L9.07873 10.6044C8.82073 10.3464 8.67578 9.9965 8.67578 9.63162C8.67578 9.26675 8.82073 8.91682 9.07873 8.65881C9.33674 8.40081 9.68667 8.25586 10.0515 8.25586C10.4164 8.25586 10.7664 8.40081 11.0244 8.65881L22.4265 20.0627L33.8287 8.65881C34.0867 8.40081 34.4367 8.25586 34.8015 8.25586C35.1664 8.25586 35.5164 8.40081 35.7744 8.65881C36.0324 8.91682 36.1773 9.26675 36.1773 9.63162C36.1773 9.9965 36.0324 10.3464 35.7744 10.6044L24.3705 22.0066L35.7744 33.4088Z" fill="#E0E721"/>
</svg>
