<svg width="230" height="229" viewBox="0 0 230 229" fill="none" xmlns="http://www.w3.org/2000/svg">
<g opacity="0.5">
<path d="M24.3859 113.069C25.1378 113.633 25.9933 114.043 26.9036 114.276C27.814 114.509 28.7614 114.561 29.6917 114.428C30.6221 114.295 31.5171 113.98 32.3257 113.501C33.1344 113.023 33.8408 112.389 34.4047 111.637C38.7375 105.86 44.3558 101.171 50.8148 97.942C57.2737 94.7125 64.3959 93.0312 71.6172 93.0312C78.8385 93.0312 85.9607 94.7125 92.4196 97.942C98.8786 101.171 104.497 105.86 108.83 111.637C109.97 113.154 111.666 114.156 113.545 114.423C115.423 114.69 117.331 114.2 118.848 113.06C119.389 112.658 119.868 112.178 120.271 111.637C124.604 105.86 130.222 101.171 136.681 97.942C143.14 94.7125 150.262 93.0312 157.483 93.0312C164.705 93.0312 171.827 94.7125 178.286 97.942C184.745 101.171 190.363 105.86 194.696 111.637C195.836 113.156 197.532 114.159 199.412 114.427C201.292 114.694 203.201 114.204 204.719 113.064C206.237 111.924 207.241 110.228 207.508 108.348C207.776 106.468 207.286 104.559 206.146 103.041C199.811 94.5489 191.364 87.8629 181.645 83.6476C186.973 78.7826 190.706 72.4202 192.354 65.3956C194.002 58.3709 193.488 51.012 190.879 44.2848C188.27 37.5576 183.688 31.7764 177.735 27.6998C171.781 23.6232 164.734 21.4418 157.519 21.4418C150.304 21.4418 143.257 23.6232 137.303 27.6998C131.35 31.7764 126.768 37.5576 124.159 44.2848C121.55 51.012 121.036 58.3709 122.684 65.3956C124.332 72.4202 128.065 78.7826 133.394 83.6476C126.375 86.6823 120 91.0267 114.608 96.4483C109.217 91.0267 102.841 86.6823 95.8232 83.6476C101.152 78.7826 104.885 72.4202 106.533 65.3956C108.181 58.3709 107.667 51.012 105.058 44.2848C102.449 37.5576 97.8669 31.7764 91.9134 27.6998C85.96 23.6232 78.9131 21.4418 71.6977 21.4418C64.4823 21.4418 57.4354 23.6232 51.4819 27.6998C45.5285 31.7764 40.9466 37.5576 38.3375 44.2848C35.7285 51.012 35.2142 58.3709 36.8623 65.3956C38.5103 72.4202 42.2436 78.7826 47.5722 83.6476C37.8097 87.8491 29.3211 94.5395 22.9547 103.05C22.3908 103.802 21.9806 104.657 21.7473 105.568C21.5141 106.478 21.4625 107.425 21.5954 108.356C21.7283 109.286 22.0431 110.181 22.5219 110.99C23.0007 111.798 23.6341 112.505 24.3859 113.069ZM157.492 35.7812C161.738 35.7812 165.889 37.0403 169.42 39.3994C172.95 41.7584 175.702 45.1113 177.327 49.0342C178.952 52.9571 179.377 57.2738 178.548 61.4383C177.72 65.6028 175.675 69.4282 172.673 72.4307C169.67 75.4331 165.845 77.4778 161.681 78.3062C157.516 79.1346 153.199 78.7094 149.276 77.0845C145.354 75.4596 142.001 72.7079 139.642 69.1774C137.283 65.6469 136.023 61.4961 136.023 57.25C136.023 51.5561 138.285 46.0954 142.311 42.0693C146.338 38.0431 151.798 35.7812 157.492 35.7812ZM71.6172 35.7812C75.8633 35.7812 80.0141 37.0403 83.5446 39.3994C87.0751 41.7584 89.8268 45.1113 91.4517 49.0342C93.0766 52.9571 93.5018 57.2738 92.6734 61.4383C91.845 65.6028 89.8003 69.4282 86.7979 72.4307C83.7954 75.4331 79.9701 77.4778 75.8055 78.3062C71.641 79.1346 67.3244 78.7094 63.4015 77.0845C59.4785 75.4596 56.1256 72.7079 53.7666 69.1774C51.4076 65.6469 50.1484 61.4961 50.1484 57.25C50.1484 51.5561 52.4103 46.0954 56.4365 42.0693C60.4627 38.0431 65.9233 35.7812 71.6172 35.7812ZM181.645 176.679C186.973 171.814 190.706 165.451 192.354 158.427C194.002 151.402 193.488 144.043 190.879 137.316C188.27 130.589 183.688 124.808 177.735 120.731C171.781 116.654 164.734 114.473 157.519 114.473C150.304 114.473 143.257 116.654 137.303 120.731C131.35 124.808 126.768 130.589 124.159 137.316C121.55 144.043 121.036 151.402 122.684 158.427C124.332 165.451 128.065 171.814 133.394 176.679C126.375 179.714 120 184.058 114.608 189.48C109.217 184.058 102.841 179.714 95.8232 176.679C101.152 171.814 104.885 165.451 106.533 158.427C108.181 151.402 107.667 144.043 105.058 137.316C102.449 130.589 97.8669 124.808 91.9134 120.731C85.96 116.654 78.9131 114.473 71.6977 114.473C64.4823 114.473 57.4354 116.654 51.4819 120.731C45.5285 124.808 40.9466 130.589 38.3375 137.316C35.7285 144.043 35.2142 151.402 36.8623 158.427C38.5103 165.451 42.2436 171.814 47.5722 176.679C37.8097 180.88 29.3211 187.571 22.9547 196.081C22.3908 196.833 21.9806 197.689 21.7473 198.599C21.5141 199.509 21.4625 200.457 21.5954 201.387C21.7283 202.317 22.0431 203.212 22.5219 204.021C23.0007 204.83 23.6341 205.536 24.3859 206.1C25.1378 206.664 25.9933 207.074 26.9036 207.307C27.814 207.541 28.7614 207.592 29.6917 207.459C30.6221 207.326 31.5171 207.012 32.3257 206.533C33.1344 206.054 33.8408 205.421 34.4047 204.669C38.7375 198.892 44.3558 194.203 50.8148 190.973C57.2737 187.744 64.3959 186.062 71.6172 186.062C78.8385 186.062 85.9607 187.744 92.4196 190.973C98.8786 194.203 104.497 198.892 108.83 204.669C109.97 206.186 111.666 207.188 113.545 207.454C115.423 207.721 117.331 207.231 118.848 206.091C119.389 205.689 119.868 205.21 120.271 204.669C124.604 198.892 130.222 194.203 136.681 190.973C143.14 187.744 150.262 186.062 157.483 186.062C164.705 186.062 171.827 187.744 178.286 190.973C184.745 194.203 190.363 198.892 194.696 204.669C195.836 206.187 197.532 207.19 199.412 207.458C201.292 207.726 203.201 207.235 204.719 206.095C206.237 204.956 207.241 203.259 207.508 201.379C207.776 199.5 207.286 197.591 206.146 196.072C199.811 187.58 191.364 180.894 181.645 176.679ZM71.6172 128.812C75.8633 128.812 80.0141 130.072 83.5446 132.431C87.0751 134.79 89.8268 138.143 91.4517 142.065C93.0766 145.988 93.5018 150.305 92.6734 154.47C91.845 158.634 89.8003 162.459 86.7979 165.462C83.7954 168.464 79.9701 170.509 75.8055 171.337C71.641 172.166 67.3244 171.741 63.4015 170.116C59.4785 168.491 56.1256 165.739 53.7666 162.209C51.4076 158.678 50.1484 154.527 50.1484 150.281C50.1484 144.587 52.4103 139.127 56.4365 135.101C60.4627 131.074 65.9233 128.812 71.6172 128.812ZM157.492 128.812C161.738 128.812 165.889 130.072 169.42 132.431C172.95 134.79 175.702 138.143 177.327 142.065C178.952 145.988 179.377 150.305 178.548 154.47C177.72 158.634 175.675 162.459 172.673 165.462C169.67 168.464 165.845 170.509 161.681 171.337C157.516 172.166 153.199 171.741 149.276 170.116C145.354 168.491 142.001 165.739 139.642 162.209C137.283 158.678 136.023 154.527 136.023 150.281C136.023 144.587 138.285 139.127 142.311 135.101C146.338 131.074 151.798 128.812 157.492 128.812Z" fill="#E0E721"/>
</g>
</svg>
