<svg width="22" height="23" viewBox="0 0 22 23" fill="none" xmlns="http://www.w3.org/2000/svg">
<path d="M21.3125 18.375H19.9375V8.75C20.1198 8.75 20.2947 8.67757 20.4236 8.54864C20.5526 8.4197 20.625 8.24484 20.625 8.0625C20.625 7.88016 20.5526 7.7053 20.4236 7.57636C20.2947 7.44743 20.1198 7.375 19.9375 7.375H15.8125V4.625C15.9948 4.625 16.1697 4.55257 16.2986 4.42364C16.4276 4.2947 16.5 4.11984 16.5 3.9375C16.5 3.75516 16.4276 3.5803 16.2986 3.45136C16.1697 3.32243 15.9948 3.25 15.8125 3.25H3.4375C3.25516 3.25 3.0803 3.32243 2.95136 3.45136C2.82243 3.5803 2.75 3.75516 2.75 3.9375C2.75 4.11984 2.82243 4.2947 2.95136 4.42364C3.0803 4.55257 3.25516 4.625 3.4375 4.625V18.375H2.0625C1.88016 18.375 1.7053 18.4474 1.57636 18.5764C1.44743 18.7053 1.375 18.8802 1.375 19.0625C1.375 19.2448 1.44743 19.4197 1.57636 19.5486C1.7053 19.6776 1.88016 19.75 2.0625 19.75H21.3125C21.4948 19.75 21.6697 19.6776 21.7986 19.5486C21.9276 19.4197 22 19.2448 22 19.0625C22 18.8802 21.9276 18.7053 21.7986 18.5764C21.6697 18.4474 21.4948 18.375 21.3125 18.375ZM18.5625 8.75V18.375H15.8125V8.75H18.5625ZM4.8125 4.625H14.4375V18.375H12.375V14.25C12.375 14.0677 12.3026 13.8928 12.1736 13.7639C12.0447 13.6349 11.8698 13.5625 11.6875 13.5625H7.5625C7.38016 13.5625 7.2053 13.6349 7.07636 13.7639C6.94743 13.8928 6.875 14.0677 6.875 14.25V18.375H4.8125V4.625ZM11 18.375H8.25V14.9375H11V18.375ZM6.1875 7.375C6.1875 7.19266 6.25993 7.0178 6.38886 6.88886C6.5178 6.75993 6.69266 6.6875 6.875 6.6875H8.25C8.43234 6.6875 8.6072 6.75993 8.73614 6.88886C8.86507 7.0178 8.9375 7.19266 8.9375 7.375C8.9375 7.55734 8.86507 7.7322 8.73614 7.86114C8.6072 7.99007 8.43234 8.0625 8.25 8.0625H6.875C6.69266 8.0625 6.5178 7.99007 6.38886 7.86114C6.25993 7.7322 6.1875 7.55734 6.1875 7.375ZM10.3125 7.375C10.3125 7.19266 10.3849 7.0178 10.5139 6.88886C10.6428 6.75993 10.8177 6.6875 11 6.6875H12.375C12.5573 6.6875 12.7322 6.75993 12.8611 6.88886C12.9901 7.0178 13.0625 7.19266 13.0625 7.375C13.0625 7.55734 12.9901 7.7322 12.8611 7.86114C12.7322 7.99007 12.5573 8.0625 12.375 8.0625H11C10.8177 8.0625 10.6428 7.99007 10.5139 7.86114C10.3849 7.7322 10.3125 7.55734 10.3125 7.375ZM6.1875 10.8125C6.1875 10.6302 6.25993 10.4553 6.38886 10.3264C6.5178 10.1974 6.69266 10.125 6.875 10.125H8.25C8.43234 10.125 8.6072 10.1974 8.73614 10.3264C8.86507 10.4553 8.9375 10.6302 8.9375 10.8125C8.9375 10.9948 8.86507 11.1697 8.73614 11.2986C8.6072 11.4276 8.43234 11.5 8.25 11.5H6.875C6.69266 11.5 6.5178 11.4276 6.38886 11.2986C6.25993 11.1697 6.1875 10.9948 6.1875 10.8125ZM10.3125 10.8125C10.3125 10.6302 10.3849 10.4553 10.5139 10.3264C10.6428 10.1974 10.8177 10.125 11 10.125H12.375C12.5573 10.125 12.7322 10.1974 12.8611 10.3264C12.9901 10.4553 13.0625 10.6302 13.0625 10.8125C13.0625 10.9948 12.9901 11.1697 12.8611 11.2986C12.7322 11.4276 12.5573 11.5 12.375 11.5H11C10.8177 11.5 10.6428 11.4276 10.5139 11.2986C10.3849 11.1697 10.3125 10.9948 10.3125 10.8125Z" fill="#1E252E"/>
</svg>
