<svg width="15" height="14" viewBox="0 0 15 14" fill="none" xmlns="http://www.w3.org/2000/svg">
<path d="M12.75 2.625H2.25C2.13397 2.625 2.02269 2.67109 1.94064 2.75314C1.85859 2.83519 1.8125 2.94647 1.8125 3.0625V10.5C1.8125 10.7321 1.90469 10.9546 2.06878 11.1187C2.23288 11.2828 2.45544 11.375 2.6875 11.375H12.3125C12.5446 11.375 12.7671 11.2828 12.9312 11.1187C13.0953 10.9546 13.1875 10.7321 13.1875 10.5V3.0625C13.1875 2.94647 13.1414 2.83519 13.0594 2.75314C12.9773 2.67109 12.866 2.625 12.75 2.625ZM11.6251 3.5L7.5 7.28164L3.37492 3.5H11.6251ZM12.3125 10.5H2.6875V4.05727L7.20414 8.19766C7.28485 8.27175 7.39043 8.31286 7.5 8.31286C7.60957 8.31286 7.71515 8.27175 7.79586 8.19766L12.3125 4.05727V10.5Z" fill="#E0E721"/>
</svg>
