<svg width="15" height="14" viewBox="0 0 15 14" fill="none" xmlns="http://www.w3.org/2000/svg">
<path d="M7.5 1.3125C6.37512 1.3125 5.2755 1.64607 4.3402 2.27102C3.40489 2.89597 2.67591 3.78423 2.24544 4.82349C1.81496 5.86274 1.70233 7.00631 1.92179 8.10958C2.14124 9.21284 2.68292 10.2263 3.47833 11.0217C4.27374 11.8171 5.28716 12.3588 6.39043 12.5782C7.49369 12.7977 8.63726 12.685 9.67651 12.2546C10.7158 11.8241 11.604 11.0951 12.229 10.1598C12.8539 9.2245 13.1875 8.12488 13.1875 7C13.1859 5.49207 12.5862 4.04636 11.5199 2.98009C10.4536 1.91382 9.00793 1.31409 7.5 1.3125ZM7.9375 11.7923V8.3125H9.25C9.36603 8.3125 9.47731 8.26641 9.55936 8.18436C9.64141 8.10231 9.6875 7.99103 9.6875 7.875C9.6875 7.75897 9.64141 7.64769 9.55936 7.56564C9.47731 7.48359 9.36603 7.4375 9.25 7.4375H7.9375V6.125C7.9375 5.89294 8.02969 5.67038 8.19378 5.50628C8.35788 5.34219 8.58044 5.25 8.8125 5.25H9.6875C9.80353 5.25 9.91481 5.20391 9.99686 5.12186C10.0789 5.03981 10.125 4.92853 10.125 4.8125C10.125 4.69647 10.0789 4.58519 9.99686 4.50314C9.91481 4.42109 9.80353 4.375 9.6875 4.375H8.8125C8.34837 4.375 7.90325 4.55937 7.57507 4.88756C7.24688 5.21575 7.0625 5.66087 7.0625 6.125V7.4375H5.75C5.63397 7.4375 5.52269 7.48359 5.44064 7.56564C5.3586 7.64769 5.3125 7.75897 5.3125 7.875C5.3125 7.99103 5.3586 8.10231 5.44064 8.18436C5.52269 8.26641 5.63397 8.3125 5.75 8.3125H7.0625V11.7923C5.82919 11.6797 4.68675 11.096 3.87282 10.1626C3.05889 9.22914 2.63614 8.01788 2.69249 6.78072C2.74884 5.54356 3.27996 4.37574 4.17537 3.52018C5.07079 2.66463 6.26156 2.18719 7.5 2.18719C8.73845 2.18719 9.92922 2.66463 10.8246 3.52018C11.72 4.37574 12.2512 5.54356 12.3075 6.78072C12.3639 8.01788 11.9411 9.22914 11.1272 10.1626C10.3133 11.096 9.17082 11.6797 7.9375 11.7923Z" fill="#E0E721"/>
</svg>
