<svg width="16" height="17" viewBox="0 0 16 17" fill="none" xmlns="http://www.w3.org/2000/svg">
<g clip-path="url(#clip0_1715_106)">
<g clip-path="url(#clip1_1715_106)">
<path d="M8.00065 15.1666C4.31865 15.1666 1.33398 12.1819 1.33398 8.49992C1.33398 4.81792 4.31865 1.83325 8.00065 1.83325C11.6826 1.83325 14.6673 4.81792 14.6673 8.49992C14.6673 12.1819 11.6826 15.1666 8.00065 15.1666ZM8.00065 13.8333C9.41514 13.8333 10.7717 13.2714 11.7719 12.2712C12.7721 11.271 13.334 9.91441 13.334 8.49992C13.334 7.08543 12.7721 5.72888 11.7719 4.72868C10.7717 3.72849 9.41514 3.16659 8.00065 3.16659C6.58616 3.16659 5.22961 3.72849 4.22941 4.72868C3.22922 5.72888 2.66732 7.08543 2.66732 8.49992C2.66732 9.91441 3.22922 11.271 4.22941 12.2712C5.22961 13.2714 6.58616 13.8333 8.00065 13.8333ZM8.66732 8.49992H11.334V9.83325H7.33398V5.16659H8.66732V8.49992Z" fill="#747474"/>
</g>
</g>
<defs>
<clipPath id="clip0_1715_106">
<rect width="16" height="17" fill="white"/>
</clipPath>
<clipPath id="clip1_1715_106">
<rect width="16" height="17" fill="white"/>
</clipPath>
</defs>
</svg>
