<svg width="15" height="14" viewBox="0 0 15 14" fill="none" xmlns="http://www.w3.org/2000/svg">
<path d="M7.5 4.375C6.98082 4.375 6.47331 4.52895 6.04163 4.81739C5.60995 5.10583 5.2735 5.5158 5.07482 5.99546C4.87614 6.47511 4.82415 7.00291 4.92544 7.51211C5.02673 8.02131 5.27673 8.48904 5.64384 8.85616C6.01096 9.22327 6.47869 9.47328 6.98789 9.57456C7.49709 9.67585 8.02489 9.62386 8.50454 9.42518C8.9842 9.2265 9.39417 8.89005 9.68261 8.45837C9.97105 8.02669 10.125 7.51918 10.125 7C10.1243 6.30403 9.84748 5.63677 9.35536 5.14464C8.86323 4.65252 8.19597 4.37572 7.5 4.375ZM7.5 8.75C7.15388 8.75 6.81554 8.64736 6.52775 8.45507C6.23997 8.26278 6.01566 7.98947 5.88321 7.6697C5.75076 7.34993 5.7161 6.99806 5.78363 6.65859C5.85115 6.31913 6.01782 6.00731 6.26256 5.76256C6.50731 5.51782 6.81913 5.35115 7.15859 5.28363C7.49806 5.2161 7.84993 5.25076 8.1697 5.38321C8.48947 5.51566 8.76278 5.73997 8.95507 6.02775C9.14736 6.31554 9.25 6.65388 9.25 7C9.25 7.46413 9.06563 7.90925 8.73744 8.23744C8.40925 8.56563 7.96413 8.75 7.5 8.75ZM10.125 1.3125H4.875C4.06304 1.31337 3.28459 1.6363 2.71044 2.21044C2.1363 2.78459 1.81337 3.56304 1.8125 4.375V9.625C1.81337 10.437 2.1363 11.2154 2.71044 11.7896C3.28459 12.3637 4.06304 12.6866 4.875 12.6875H10.125C10.937 12.6866 11.7154 12.3637 12.2896 11.7896C12.8637 11.2154 13.1866 10.437 13.1875 9.625V4.375C13.1866 3.56304 12.8637 2.78459 12.2896 2.21044C11.7154 1.6363 10.937 1.31337 10.125 1.3125ZM12.3125 9.625C12.3125 10.2052 12.082 10.7616 11.6718 11.1718C11.2616 11.582 10.7052 11.8125 10.125 11.8125H4.875C4.29484 11.8125 3.73844 11.582 3.3282 11.1718C2.91797 10.7616 2.6875 10.2052 2.6875 9.625V4.375C2.6875 3.79484 2.91797 3.23844 3.3282 2.8282C3.73844 2.41797 4.29484 2.1875 4.875 2.1875H10.125C10.7052 2.1875 11.2616 2.41797 11.6718 2.8282C12.082 3.23844 12.3125 3.79484 12.3125 4.375V9.625ZM11 4.15625C11 4.28604 10.9615 4.41292 10.8894 4.52084C10.8173 4.62876 10.7148 4.71288 10.5949 4.76255C10.475 4.81222 10.343 4.82521 10.2157 4.79989C10.0884 4.77457 9.97149 4.71207 9.87971 4.62029C9.78793 4.52851 9.72543 4.41158 9.70011 4.28428C9.67479 4.15698 9.68778 4.02503 9.73745 3.90511C9.78712 3.7852 9.87124 3.68271 9.97916 3.6106C10.0871 3.53849 10.214 3.5 10.3438 3.5C10.5178 3.5 10.6847 3.56914 10.8078 3.69221C10.9309 3.81528 11 3.9822 11 4.15625Z" fill="#E0E721"/>
</svg>
