<svg width="22" height="23" viewBox="0 0 22 23" fill="none" xmlns="http://www.w3.org/2000/svg">
<path d="M19.4674 5.34772L11.2174 2.59772C11.0763 2.55068 10.9237 2.55068 10.7826 2.59772L2.53258 5.34772C2.39568 5.39336 2.27662 5.48091 2.19225 5.59798C2.10788 5.71504 2.06249 5.85569 2.0625 5.99999V12.875C2.0625 13.0573 2.13493 13.2322 2.26386 13.3611C2.3928 13.4901 2.56766 13.5625 2.75 13.5625C2.93234 13.5625 3.1072 13.4901 3.23614 13.3611C3.36507 13.2322 3.4375 13.0573 3.4375 12.875V6.9539L6.32414 7.91554C5.5572 9.15459 5.31331 10.6474 5.64604 12.0661C5.97876 13.4848 6.8609 14.7135 8.09875 15.4823C6.55188 16.0891 5.21469 17.1865 4.23672 18.6869C4.18586 18.7625 4.15053 18.8475 4.13279 18.9369C4.11505 19.0262 4.11524 19.1182 4.13337 19.2075C4.1515 19.2968 4.18719 19.3816 4.23838 19.457C4.28957 19.5323 4.35523 19.5968 4.43154 19.6466C4.50785 19.6963 4.5933 19.7305 4.68291 19.7469C4.77253 19.7634 4.86452 19.7619 4.95354 19.7425C5.04256 19.7231 5.12684 19.6862 5.20147 19.6339C5.2761 19.5816 5.3396 19.5151 5.38828 19.438C6.68336 17.4512 8.72867 16.3125 11 16.3125C13.2713 16.3125 15.3166 17.4512 16.6117 19.438C16.7126 19.5879 16.8683 19.6921 17.0453 19.728C17.2224 19.7639 17.4064 19.7288 17.5577 19.6301C17.709 19.5314 17.8154 19.3772 17.8539 19.2007C17.8923 19.0242 17.8598 18.8396 17.7633 18.6869C16.7853 17.1865 15.443 16.0891 13.9013 15.4823C15.1379 14.7135 16.0192 13.4856 16.3519 12.0679C16.6846 10.6503 16.4414 9.15852 15.6759 7.91983L19.4674 6.65655C19.6043 6.61094 19.7234 6.5234 19.8078 6.40633C19.8922 6.28927 19.9377 6.14861 19.9377 6.00429C19.9377 5.85997 19.8922 5.71931 19.8078 5.60224C19.7234 5.48517 19.6043 5.39763 19.4674 5.35202V5.34772ZM15.125 10.8125C15.1252 11.4646 14.9707 12.1075 14.6744 12.6884C14.378 13.2693 13.9481 13.7717 13.4199 14.1542C12.8918 14.5368 12.2805 14.7887 11.6362 14.8893C10.9918 14.9899 10.3328 14.9363 9.71321 14.7328C9.09361 14.5294 8.53108 14.1819 8.07176 13.719C7.61244 13.2561 7.26942 12.6908 7.07086 12.0696C6.8723 11.4485 6.82384 10.7891 6.92947 10.1455C7.0351 9.502 7.2918 8.89268 7.67852 8.36757L10.7826 9.39882C10.9237 9.44587 11.0763 9.44587 11.2174 9.39882L14.3215 8.36757C14.8438 9.07569 15.1254 9.93258 15.125 10.8125ZM11 8.02554L4.92422 5.99999L11 3.97444L17.0758 5.99999L11 8.02554Z" fill="#1E252E"/>
</svg>
