<svg width="25" height="24" viewBox="0 0 25 24" fill="none" xmlns="http://www.w3.org/2000/svg">
<path d="M19.8725 5.12511C18.9753 4.2189 17.9082 3.49856 16.7322 3.00533C15.5563 2.5121 14.2946 2.25568 13.0194 2.25073H12.9453C10.3595 2.25073 7.8795 3.27796 6.05102 5.10644C4.22254 6.93492 3.19531 9.41487 3.19531 12.0007V17.2507C3.19531 17.8475 3.43237 18.4198 3.85432 18.8417C4.27628 19.2637 4.84858 19.5007 5.44531 19.5007H6.94531C7.54205 19.5007 8.11435 19.2637 8.5363 18.8417C8.95826 18.4198 9.19531 17.8475 9.19531 17.2507V13.5007C9.19531 12.904 8.95826 12.3317 8.5363 11.9097C8.11435 11.4878 7.54205 11.2507 6.94531 11.2507H4.72906C4.8737 9.68692 5.4611 8.19673 6.4224 6.95483C7.3837 5.71293 8.67908 4.77076 10.1567 4.23876C11.6344 3.70676 13.233 3.60697 14.7653 3.95108C16.2977 4.2952 17.7002 5.06895 18.8084 6.18167C20.163 7.5432 20.9962 9.33735 21.1625 11.2507H18.9453C18.3486 11.2507 17.7763 11.4878 17.3543 11.9097C16.9324 12.3317 16.6953 12.904 16.6953 13.5007V17.2507C16.6953 17.8475 16.9324 18.4198 17.3543 18.8417C17.7763 19.2637 18.3486 19.5007 18.9453 19.5007H21.1953C21.1953 20.0975 20.9583 20.6698 20.5363 21.0917C20.1143 21.5137 19.5421 21.7507 18.9453 21.7507H13.6953C13.4964 21.7507 13.3056 21.8297 13.165 21.9704C13.0243 22.1111 12.9453 22.3018 12.9453 22.5007C12.9453 22.6996 13.0243 22.8904 13.165 23.0311C13.3056 23.1717 13.4964 23.2507 13.6953 23.2507H18.9453C19.9399 23.2507 20.8937 22.8556 21.597 22.1524C22.3002 21.4491 22.6953 20.4953 22.6953 19.5007V12.0007C22.7002 10.7253 22.4534 9.4615 21.969 8.28166C21.4846 7.10182 20.7722 6.02914 19.8725 5.12511ZM6.94531 12.7507C7.14423 12.7507 7.33499 12.8297 7.47564 12.9704C7.6163 13.1111 7.69531 13.3018 7.69531 13.5007V17.2507C7.69531 17.4496 7.6163 17.6404 7.47564 17.7811C7.33499 17.9217 7.14423 18.0007 6.94531 18.0007H5.44531C5.2464 18.0007 5.05563 17.9217 4.91498 17.7811C4.77433 17.6404 4.69531 17.4496 4.69531 17.2507V12.7507H6.94531ZM18.9453 18.0007C18.7464 18.0007 18.5556 17.9217 18.415 17.7811C18.2743 17.6404 18.1953 17.4496 18.1953 17.2507V13.5007C18.1953 13.3018 18.2743 13.1111 18.415 12.9704C18.5556 12.8297 18.7464 12.7507 18.9453 12.7507H21.1953V18.0007H18.9453Z" fill="black"/>
</svg>
