<svg width="17" height="17" viewBox="0 0 17 17" fill="none" xmlns="http://www.w3.org/2000/svg">
<path d="M13.349 15.1666H4.01562C3.48519 15.1666 2.97649 14.9559 2.60142 14.5808C2.22635 14.2057 2.01562 13.697 2.01562 13.1666V2.49992C2.01562 2.32311 2.08587 2.15354 2.2109 2.02852C2.33592 1.90349 2.50549 1.83325 2.6823 1.83325H12.0157C12.1925 1.83325 12.3621 1.90349 12.4871 2.02852C12.6121 2.15354 12.6823 2.32311 12.6823 2.49992V10.4999H15.349V13.1666C15.349 13.697 15.1383 14.2057 14.7632 14.5808C14.3881 14.9559 13.8794 15.1666 13.349 15.1666ZM12.6823 11.8333V13.1666C12.6823 13.3434 12.7526 13.513 12.8776 13.638C13.0026 13.763 13.1722 13.8333 13.349 13.8333C13.5258 13.8333 13.6954 13.763 13.8204 13.638C13.9454 13.513 14.0157 13.3434 14.0157 13.1666V11.8333H12.6823ZM11.349 13.8333V3.16659H3.34896V13.1666C3.34896 13.3434 3.4192 13.513 3.54422 13.638C3.66925 13.763 3.83881 13.8333 4.01562 13.8333H11.349ZM4.6823 5.16659H10.0156V6.49992H4.6823V5.16659ZM4.6823 7.83325H10.0156V9.16659H4.6823V7.83325ZM4.6823 10.4999H8.01562V11.8333H4.6823V10.4999Z" fill="#747474"/>
</svg>
