<svg width="24" height="24" viewBox="0 0 24 24" fill="none" xmlns="http://www.w3.org/2000/svg">
<path d="M23.1034 6.59375C22.9838 6.52964 22.8491 6.49919 22.7135 6.50563C22.578 6.51207 22.4467 6.55516 22.3337 6.63031L19 8.84844V6.5C19 6.10218 18.842 5.72064 18.5607 5.43934C18.2794 5.15804 17.8978 5 17.5 5H2.5C2.10218 5 1.72064 5.15804 1.43934 5.43934C1.15804 5.72064 1 6.10218 1 6.5V17C1 17.3978 1.15804 17.7794 1.43934 18.0607C1.72064 18.342 2.10218 18.5 2.5 18.5H17.5C17.8978 18.5 18.2794 18.342 18.5607 18.0607C18.842 17.7794 19 17.3978 19 17V14.6562L22.3337 16.8791C22.4576 16.9595 22.6024 17.0015 22.75 17C22.9489 17 23.1397 16.921 23.2803 16.7803C23.421 16.6397 23.5 16.4489 23.5 16.25V7.25C23.4991 7.11506 23.4617 6.98287 23.3919 6.86737C23.3221 6.75187 23.2225 6.65734 23.1034 6.59375ZM17.5 17H2.5V6.5H17.5V17ZM22 14.8484L19 12.8488V10.6512L22 8.65625V14.8484Z" fill="black"/>
</svg>
