<svg width="15" height="14" viewBox="0 0 15 14" fill="none" xmlns="http://www.w3.org/2000/svg">
<path d="M10.7576 7.92094L9.00757 7.04594C8.93869 7.01161 8.86196 6.99606 8.78515 7.00086C8.70833 7.00566 8.63414 7.03064 8.57007 7.07328L7.76671 7.60922C7.39793 7.40649 7.09444 7.103 6.89171 6.73422L7.42765 5.93086C7.47029 5.86678 7.49526 5.7926 7.50007 5.71578C7.50487 5.63897 7.48932 5.56224 7.45499 5.49336L6.57999 3.74336C6.54372 3.67012 6.48767 3.6085 6.41817 3.56549C6.34867 3.52247 6.26852 3.49979 6.18679 3.5C5.60663 3.5 5.05023 3.73047 4.63999 4.1407C4.22976 4.55094 3.99929 5.10734 3.99929 5.6875C4.00074 6.96341 4.50823 8.18665 5.41044 9.08885C6.31264 9.99106 7.53588 10.4986 8.81179 10.5C9.09906 10.5 9.38351 10.4434 9.64891 10.3335C9.91431 10.2236 10.1555 10.0624 10.3586 9.8593C10.5617 9.65617 10.7228 9.41502 10.8328 9.14962C10.9427 8.88422 10.9993 8.59977 10.9993 8.3125C10.9993 8.23122 10.9768 8.15153 10.9341 8.08237C10.8914 8.01321 10.8303 7.95731 10.7576 7.92094ZM8.81179 9.625C7.76785 9.62384 6.76701 9.20863 6.02883 8.47045C5.29066 7.73228 4.87545 6.73143 4.87429 5.6875C4.8742 5.38405 4.97927 5.08994 5.1716 4.85523C5.36394 4.62052 5.63166 4.45971 5.92921 4.40016L6.55702 5.65797L6.02273 6.45312C5.9828 6.51302 5.95827 6.58183 5.9513 6.65347C5.94434 6.72512 5.95516 6.79737 5.9828 6.86383C6.29583 7.60779 6.88767 8.19963 7.63163 8.51266C7.69829 8.54153 7.77109 8.55335 7.84346 8.54705C7.91583 8.54074 7.9855 8.51652 8.04616 8.47656L8.84515 7.94391L10.103 8.57172C10.0429 8.86961 9.88143 9.13745 9.64596 9.32954C9.41049 9.52162 9.11566 9.62605 8.81179 9.625ZM7.49929 1.3125C6.51736 1.31229 5.55209 1.5663 4.69746 2.04981C3.84282 2.53333 3.12792 3.22987 2.62235 4.07165C2.11678 4.91342 1.83775 5.87176 1.81244 6.85336C1.78712 7.83497 2.01637 8.80641 2.47788 9.67313L1.85718 11.5352C1.80576 11.6894 1.7983 11.8549 1.83563 12.013C1.87296 12.1712 1.9536 12.3159 2.06852 12.4308C2.18344 12.5457 2.32809 12.6263 2.48626 12.6637C2.64444 12.701 2.80988 12.6935 2.96405 12.6421L4.82616 12.0214C5.58893 12.4271 6.43409 12.6537 7.29751 12.684C8.16092 12.7143 9.01989 12.5475 9.80922 12.1963C10.5985 11.845 11.2975 11.3186 11.853 10.6569C12.4085 9.9952 12.8059 9.21566 13.0151 8.37743C13.2244 7.53921 13.2399 6.66433 13.0605 5.81921C12.8812 4.97409 12.5116 4.18093 11.98 3.49995C11.4483 2.81897 10.7685 2.26807 9.99211 1.88905C9.21575 1.51002 8.36323 1.31285 7.49929 1.3125ZM7.49929 11.8125C6.65326 11.8131 5.82208 11.5903 5.08976 11.1666C5.03614 11.1355 4.97653 11.1162 4.91487 11.1099C4.85321 11.1036 4.79091 11.1104 4.7321 11.13L2.68679 11.8125L3.36874 9.76719C3.3884 9.70842 3.39535 9.64614 3.38912 9.58448C3.3829 9.52282 3.36365 9.46319 3.33265 9.40953C2.80216 8.49237 2.58918 7.42579 2.72673 6.37523C2.86428 5.32467 3.34468 4.34887 4.0934 3.5992C4.84212 2.84953 5.81732 2.3679 6.8677 2.22902C7.91808 2.09014 8.98494 2.30178 9.90277 2.83111C10.8206 3.36043 11.5381 4.17786 11.9439 5.15657C12.3498 6.13528 12.4213 7.22057 12.1474 8.24408C11.8735 9.26759 11.2695 10.1721 10.4291 10.8173C9.58867 11.4625 8.55881 11.8123 7.49929 11.8125Z" fill="#E0E721"/>
</svg>
